<svg width="45" height="36" viewBox="0 0 45 36" fill="none" xmlns="http://www.w3.org/2000/svg">
<g filter="url(#filter0_d_795_975)">
<path d="M28.6273 5.60756V4.02591C28.6273 3.75381 28.5191 3.49284 28.3267 3.30044C28.1343 3.10804 27.8735 3 27.6014 3H14.6275C14.3572 3.00546 14.0992 3.11534 13.908 3.30657C13.7167 3.4978 13.6068 3.75552 13.6014 4.02591V5.60756C13.6014 5.88166 13.4942 6.14491 13.3024 6.34072C13.1106 6.53653 12.8495 6.64939 12.5755 6.65499H4.02591C3.75381 6.65499 3.49297 6.76302 3.30057 6.95543C3.10817 7.14783 3 7.40879 3 7.68089V29.9739C3 30.246 3.10817 30.5069 3.30057 30.6993C3.49297 30.8917 3.75381 30.9998 4.02591 30.9998H38.2242C38.3607 31.0026 38.4964 30.9782 38.6234 30.9279C38.7503 30.8776 38.8661 30.8026 38.9636 30.707C39.0611 30.6115 39.1385 30.4974 39.1914 30.3715C39.2443 30.2456 39.2715 30.1104 39.2715 29.9739V7.68089C39.2715 7.54435 39.2443 7.40915 39.1914 7.28326C39.1385 7.15738 39.0611 7.04328 38.9636 6.94773C38.8661 6.85218 38.7503 6.77715 38.6234 6.72687C38.4964 6.67658 38.3607 6.65214 38.2242 6.65499H29.6746C29.3968 6.65499 29.1305 6.54456 28.9341 6.34815C28.7377 6.15174 28.6273 5.88532 28.6273 5.60756Z" fill="#D9D9D9"/>
<path d="M14.6174 2H14.6275H27.6014C28.1387 2 28.6539 2.21339 29.0338 2.59333C29.4137 2.97314 29.6273 3.48841 29.6273 4.02591V5.60756C29.6273 5.61994 29.6323 5.63206 29.6412 5.64105C29.6503 5.65013 29.6623 5.65499 29.6746 5.65499H38.2155C38.481 5.65105 38.7447 5.69935 38.9916 5.79714L38.6234 6.72687L38.9916 5.79714C39.2417 5.89619 39.4703 6.04422 39.6634 6.23336L38.9664 6.94482L39.6634 6.23338C39.8565 6.42254 40.0091 6.64796 40.1133 6.89592C40.2177 7.1444 40.2715 7.41128 40.2715 7.68089L14.6174 2ZM14.6174 2L14.6073 2.0002C14.0789 2.01088 13.5747 2.22556 13.2008 2.59947C12.8271 2.97318 12.6123 3.47699 12.6016 4.0057L12.6014 4.0158V4.02591V5.60756V5.60776C12.6014 5.62058 12.5964 5.6324 12.588 5.64094C12.5802 5.64895 12.5697 5.65392 12.5586 5.65499M14.6174 2L12.5586 5.65499M12.5586 5.65499H4.02591C3.4886 5.65499 2.97341 5.86837 2.59346 6.24832L3.262 6.91686L2.59346 6.24832C2.21365 6.62813 2 7.1434 2 7.68089V29.9739C2 30.5114 2.21365 31.0266 2.59347 31.4064C2.97341 31.7864 3.4886 31.9998 4.02591 31.9998H38.2155C38.481 32.0037 38.7447 31.9554 38.9916 31.8576L38.6234 30.9279L38.9916 31.8576C39.2417 31.7586 39.4703 31.6105 39.6634 31.4214C39.8565 31.2322 40.0091 31.0068 40.1133 30.7588C40.2177 30.5104 40.2715 30.2435 40.2715 29.9739C40.2715 29.9738 40.2715 29.9737 40.2715 29.9736V7.68112L12.5586 5.65499Z" stroke="white" stroke-width="2"/>
</g>
<path d="M21.1267 27.2808C25.8485 27.2808 29.6763 23.453 29.6763 18.7312C29.6763 14.0094 25.8485 10.1816 21.1267 10.1816C16.4049 10.1816 12.5771 14.0094 12.5771 18.7312C12.5771 23.453 16.4049 27.2808 21.1267 27.2808Z" fill="white"/>
<path d="M33.907 12.1265C34.7687 12.1265 35.4673 11.4279 35.4673 10.5662C35.4673 9.70443 34.7687 9.00586 33.907 9.00586C33.0452 9.00586 32.3467 9.70443 32.3467 10.5662C32.3467 11.4279 33.0452 12.1265 33.907 12.1265Z" fill="white"/>
<path d="M22.13 13.6019L23.0706 15.4614C23.1454 15.6312 23.264 15.7781 23.4142 15.887C23.5644 15.9959 23.741 16.0629 23.9256 16.0812L26.063 16.3805C26.2715 16.4144 26.4667 16.5048 26.6273 16.6419C26.788 16.7791 26.9077 16.9577 26.9738 17.1583C27.04 17.3589 27.0498 17.5739 27.0023 17.7797C26.9547 17.9855 26.8515 18.1742 26.704 18.3255L25.208 19.7789C25.0755 19.9067 24.9769 20.0655 24.921 20.2408C24.865 20.4162 24.8534 20.6026 24.8873 20.7835L25.2294 22.9209C25.266 23.1298 25.2433 23.3447 25.1639 23.5412C25.0844 23.7378 24.9513 23.9081 24.7798 24.0328C24.6083 24.1575 24.4053 24.2316 24.1938 24.2466C23.9823 24.2617 23.7709 24.2171 23.5835 24.1179L21.7454 23.156C21.5799 23.0716 21.3968 23.0275 21.2111 23.0275C21.0253 23.0275 20.8422 23.0716 20.6767 23.156L18.8386 24.1179C18.6498 24.2144 18.4379 24.257 18.2265 24.2411C18.0151 24.2253 17.8122 24.1514 17.64 24.0277C17.4677 23.9041 17.3328 23.7355 17.2502 23.5402C17.1675 23.3449 17.1403 23.1307 17.1714 22.9209L17.5348 20.7835C17.5661 20.6009 17.5512 20.4132 17.4915 20.2377C17.4318 20.0623 17.329 19.9045 17.1928 19.7789L15.7178 18.3255C15.5628 18.179 15.4525 17.9918 15.3992 17.7853C15.346 17.5788 15.352 17.3615 15.4167 17.1583C15.4815 16.9551 15.6024 16.7742 15.7653 16.6366C15.9283 16.499 16.1266 16.4103 16.3377 16.3805L18.4751 16.0812C18.6579 16.0569 18.8318 15.9875 18.981 15.8793C19.1303 15.7711 19.2502 15.6276 19.3301 15.4614L20.2493 13.6019C20.3529 13.4476 20.4929 13.3212 20.6569 13.2338C20.8209 13.1464 21.0038 13.1006 21.1897 13.1006C21.3755 13.1006 21.5584 13.1464 21.7225 13.2338C21.8865 13.3212 22.0264 13.4476 22.13 13.6019Z" fill="#D9D9D9"/>
<defs>
<filter id="filter0_d_795_975" x="0" y="0" width="44.2715" height="36" filterUnits="userSpaceOnUse" color-interpolation-filters="sRGB">
<feFlood flood-opacity="0" result="BackgroundImageFix"/>
<feColorMatrix in="SourceAlpha" type="matrix" values="0 0 0 0 0 0 0 0 0 0 0 0 0 0 0 0 0 0 127 0" result="hardAlpha"/>
<feOffset dx="1" dy="1"/>
<feGaussianBlur stdDeviation="1"/>
<feComposite in2="hardAlpha" operator="out"/>
<feColorMatrix type="matrix" values="0 0 0 0 0 0 0 0 0 0 0 0 0 0 0 0 0 0 0.1 0"/>
<feBlend mode="normal" in2="BackgroundImageFix" result="effect1_dropShadow_795_975"/>
<feBlend mode="normal" in="SourceGraphic" in2="effect1_dropShadow_795_975" result="shape"/>
</filter>
</defs>
</svg>
