<svg width="38" height="33" viewBox="0 0 38 33" fill="none" xmlns="http://www.w3.org/2000/svg">
<path d="M1.50006 19.0801C1.12006 19.0801 0.730059 18.9301 0.440059 18.6401C-0.149941 18.0501 -0.149941 17.1001 0.440059 16.5201L15.9201 1.05006C17.3001 -0.329935 19.5601 -0.349935 20.9601 1.01006L36.9301 16.5101C37.5201 17.0901 37.5401 18.0401 36.9601 18.6301C36.3801 19.2201 35.4301 19.2401 34.8401 18.6601L18.8701 3.16006C18.6401 2.94006 18.2601 2.94006 18.0401 3.16006L2.56006 18.6401C2.27006 18.9301 1.88006 19.0801 1.50006 19.0801Z" fill="black"/>
<path d="M31.0301 20.6399L20.1801 10.4299C19.3501 9.6399 18.0401 9.6399 17.2101 10.4299L6.36005 20.6399C5.92005 21.0499 5.68005 21.6199 5.68005 22.2199V30.3499C5.68005 31.5499 6.65005 32.5199 7.85005 32.5199H14.2601C15.3601 32.5199 16.2601 31.6199 16.2601 30.5199V24.2399C16.2601 22.9399 17.1901 21.7399 18.4901 21.6299C19.9401 21.4999 21.1601 22.6399 21.1601 24.0699V30.5299C21.1601 31.6299 22.0601 32.5299 23.1601 32.5299H29.5701C30.7701 32.5299 31.7401 31.5599 31.7401 30.3599V22.2299C31.7401 21.6299 31.4901 21.0599 31.0601 20.6499L31.0301 20.6399Z" fill="black"/>
</svg>
