<svg width="44" height="38" viewBox="0 0 44 38" fill="none" xmlns="http://www.w3.org/2000/svg">
<g filter="url(#filter0_d_795_982)">
<path d="M4.31413 21.5916L4.32546 21.592L4.33679 21.5922C4.65761 21.5973 4.9766 21.539 5.27504 21.4203C5.57349 21.3016 5.84565 21.1247 6.07509 20.8995L6.07762 20.897L20.2346 6.90053L34.921 20.9211C35.1427 21.14 35.405 21.3133 35.6928 21.4318L36.0736 20.5071L35.6928 21.4318C35.9844 21.5518 36.2968 21.6135 36.6121 21.6135C36.9273 21.6135 37.2397 21.5518 37.5313 21.4318L37.1506 20.5071L37.5313 21.4318C37.8229 21.3117 38.0884 21.1354 38.3121 20.9123L38.3128 20.9115C38.76 20.4645 39.0132 19.8589 39.0132 19.225C39.0132 18.5911 38.76 17.9856 38.3128 17.5385L38.3047 17.5304L38.2963 17.5224L23.2963 3.20237L23.2963 3.20235L23.2911 3.19742C22.4728 2.42742 21.3878 2 20.2621 2C19.1363 2 18.0513 2.42742 17.233 3.19742L17.2245 3.20543L17.2162 3.21364L2.715 17.5132C2.4899 17.7331 2.3103 17.9954 2.18729 18.2855C2.06379 18.5768 2 18.8899 2 19.2065C2 19.5231 2.06379 19.8362 2.18729 20.1275C2.3101 20.4172 2.48931 20.6791 2.71388 20.8987C3.14182 21.3223 3.71377 21.5684 4.31413 21.5916Z" fill="#FFC215" stroke="white" stroke-width="2"/>
<path d="M32.7482 21.3039L32.7483 21.3039L32.743 21.299L22.5718 11.8946C22.5717 11.8945 22.5716 11.8945 22.5715 11.8944C22.0045 11.3693 21.2585 11.0791 20.4859 11.0791C19.7133 11.0791 18.9671 11.3693 18.4001 11.8946C18.4001 11.8946 18.4001 11.8946 18.4001 11.8946L8.247 21.2996L8.24699 21.2996L8.24238 21.3039C7.94325 21.5845 7.70403 21.9228 7.53988 22.2986C7.37571 22.6745 7.29024 23.0799 7.28906 23.4901V23.493L7.28905 31.0041L7.28907 31.0087C7.29281 31.808 7.61775 32.5703 8.18796 33.1296C8.7577 33.6885 9.52579 33.9996 10.3234 33.9996H16.3234C17.0812 33.9996 17.8109 33.7031 18.3512 33.1707C18.8919 32.6378 19.1984 31.9119 19.1984 31.1519V25.35V25.3376L19.1981 25.3253C19.1899 24.9909 19.3071 24.6631 19.5309 24.405C19.7505 24.1516 20.0582 23.9827 20.3983 23.933C20.5729 23.9202 20.7483 23.9421 20.9139 23.9972C21.086 24.0543 21.2431 24.1459 21.3756 24.2652C21.508 24.3845 21.6128 24.5287 21.6842 24.6883C21.7556 24.8478 21.7922 25.0196 21.7922 25.1929C21.7922 25.1929 21.7922 25.1929 21.7922 25.1929V31.1519C21.7922 31.9119 22.0987 32.6378 22.6395 33.1707L23.3414 32.4584L22.6395 33.1707C23.1797 33.7031 23.9094 33.9996 24.6672 33.9996H30.6672C31.4648 33.9996 32.2329 33.6885 32.8027 33.1296C33.3729 32.5703 33.6978 31.808 33.7016 31.0087V31.0041L33.7016 23.493L33.7016 23.4901C33.7004 23.0799 33.6149 22.6745 33.4507 22.2986C33.2866 21.9228 33.0474 21.5845 32.7482 21.3039Z" fill="#FFC215" stroke="white" stroke-width="2"/>
</g>
<defs>
<filter id="filter0_d_795_982" x="0" y="0" width="43.0132" height="38" filterUnits="userSpaceOnUse" color-interpolation-filters="sRGB">
<feFlood flood-opacity="0" result="BackgroundImageFix"/>
<feColorMatrix in="SourceAlpha" type="matrix" values="0 0 0 0 0 0 0 0 0 0 0 0 0 0 0 0 0 0 127 0" result="hardAlpha"/>
<feOffset dx="1" dy="1"/>
<feGaussianBlur stdDeviation="1"/>
<feComposite in2="hardAlpha" operator="out"/>
<feColorMatrix type="matrix" values="0 0 0 0 0 0 0 0 0 0 0 0 0 0 0 0 0 0 0.1 0"/>
<feBlend mode="normal" in2="BackgroundImageFix" result="effect1_dropShadow_795_982"/>
<feBlend mode="normal" in="SourceGraphic" in2="effect1_dropShadow_795_982" result="shape"/>
</filter>
</defs>
</svg>
