<svg width="38" height="33" viewBox="0 0 38 33" fill="none" xmlns="http://www.w3.org/2000/svg">
<path d="M1.5025 19.0776C1.1225 19.0776 0.7325 18.9276 0.4425 18.6376C-0.1475 18.0476 -0.1475 17.0976 0.4425 16.5176L15.9225 1.04762C17.3025 -0.332377 19.5625 -0.352377 20.9625 1.00762L36.9325 16.5076C37.5225 17.0876 37.5425 18.0376 36.9625 18.6276C36.3825 19.2176 35.4325 19.2376 34.8425 18.6576L18.8725 3.15762C18.6425 2.93762 18.2625 2.93762 18.0425 3.15762L2.5625 18.6376C2.2725 18.9276 1.8825 19.0776 1.5025 19.0776Z" fill="#D9D9D9"/>
<path d="M31.0325 20.6375L20.1825 10.4275C19.3525 9.63746 18.0425 9.63746 17.2125 10.4275L6.3625 20.6375C5.9225 21.0475 5.6825 21.6175 5.6825 22.2175V30.3475C5.6825 31.5475 6.6525 32.5175 7.8525 32.5175H14.2625C15.3625 32.5175 16.2625 31.6175 16.2625 30.5175V24.2375C16.2625 22.9375 17.1925 21.7375 18.4925 21.6275C19.9425 21.4975 21.1625 22.6375 21.1625 24.0675V30.5275C21.1625 31.6275 22.0625 32.5275 23.1625 32.5275H29.5725C30.7725 32.5275 31.7425 31.5575 31.7425 30.3575V22.2275C31.7425 21.6275 31.4925 21.0575 31.0625 20.6475L31.0325 20.6375Z" fill="#D9D9D9"/>
</svg>
