<svg width="30" height="27" viewBox="0 0 30 27" fill="none" xmlns="http://www.w3.org/2000/svg">
<path d="M1.21181 15.3461C1.0527 15.3483 0.894826 15.3179 0.747857 15.2569C0.600889 15.1959 0.467923 15.1055 0.357097 14.9913C0.243976 14.8796 0.154161 14.7465 0.0928624 14.5998C0.0315639 14.4531 0 14.2956 0 14.1366C0 13.9776 0.0315639 13.8202 0.0928624 13.6735C0.154161 13.5268 0.243976 13.3937 0.357097 13.2819L12.8311 0.807876C13.3742 0.289338 14.0961 0 14.847 0C15.5978 0 16.3198 0.289338 16.8628 0.807876L29.7642 13.3061C29.935 13.5379 30.0175 13.823 29.9969 14.1101C29.9763 14.3973 29.8539 14.6677 29.6518 14.8727C29.4497 15.0777 29.1811 15.2039 28.8943 15.2286C28.6075 15.2533 28.3212 15.1749 28.087 15.0075L15.1856 2.50925C15.0966 2.42111 14.9763 2.37167 14.851 2.37167C14.7257 2.37167 14.6054 2.42111 14.5164 2.50925L2.06653 14.9913C1.95514 15.1048 1.82206 15.1946 1.67523 15.2556C1.52839 15.3166 1.37079 15.3473 1.21181 15.3461Z" fill="#FF6200"/>
<path d="M25.0229 16.6048L16.2742 8.37206C15.9485 8.06057 15.5153 7.88672 15.0647 7.88672C14.614 7.88672 14.1808 8.06057 13.8552 8.37206L5.12253 16.6048C4.95025 16.7694 4.81291 16.9671 4.7187 17.186C4.6245 17.4049 4.57536 17.6405 4.57422 17.8788V24.4343C4.57421 24.897 4.75746 25.3408 5.08386 25.6687C5.41026 25.9966 5.85325 26.1819 6.31591 26.184H11.4765C11.9042 26.184 12.3144 26.0141 12.6168 25.7117C12.9192 25.4093 13.0891 24.9991 13.0891 24.5714V19.5076C13.0767 18.9968 13.2534 18.4995 13.5853 18.1111C13.9172 17.7226 14.3808 17.4705 14.8873 17.403C15.1599 17.3785 15.4346 17.4108 15.694 17.498C15.9535 17.5852 16.192 17.7253 16.3944 17.9096C16.5968 18.0938 16.7587 18.3181 16.8699 18.5682C16.9811 18.8183 17.0391 19.0887 17.0402 19.3624V24.5714C17.0402 24.9991 17.2101 25.4093 17.5125 25.7117C17.815 26.0141 18.2252 26.184 18.6529 26.184H23.8134C24.2775 26.184 24.7225 25.9997 25.0507 25.6716C25.3788 25.3434 25.5632 24.8984 25.5632 24.4343V17.8788C25.5631 17.6411 25.5152 17.4058 25.4224 17.1869C25.3296 16.9681 25.1937 16.7701 25.0229 16.6048Z" fill="#FF6200"/>
</svg>
