<svg width="37" height="36" viewBox="0 0 37 36" fill="none" xmlns="http://www.w3.org/2000/svg">
<g filter="url(#filter0_d_795_960)">
<path d="M22.581 2.51807C22.8239 2.51868 23.0644 2.56677 23.2888 2.65963C23.6026 2.79047 23.8727 3.0078 24.0676 3.28628C24.2625 3.56476 24.3743 3.89291 24.3898 4.23248L24.4999 6.08844C24.5008 6.12559 24.5115 6.16185 24.5308 6.19359C24.5502 6.22533 24.5775 6.25144 24.61 6.26932L26.1829 7.22876C26.4724 7.40142 26.7077 7.65187 26.8619 7.95163C27.0161 8.25138 27.0831 8.58841 27.0553 8.92436C27.0274 9.26031 26.9058 9.5817 26.7043 9.85196C26.5028 10.1222 26.2295 10.3305 25.9155 10.4531L24.1854 11.1294C24.1515 11.1455 24.1214 11.1685 24.097 11.197C24.0727 11.2254 24.0545 11.2587 24.0438 11.2946L23.627 13.1034C23.5532 13.4319 23.3877 13.7327 23.1496 13.9708C22.9115 14.2088 22.6107 14.3744 22.2822 14.4481C22.1465 14.4857 22.0062 14.5043 21.8654 14.5032C21.787 14.5109 21.7079 14.5109 21.6295 14.5032C21.4407 14.7313 21.2599 14.9829 21.079 15.2424C21.2959 15.1518 21.5281 15.1038 21.7632 15.1009H21.889L23.7371 15.2503C23.7694 15.2494 23.8011 15.2411 23.8297 15.2261C23.8583 15.2112 23.8831 15.1898 23.9023 15.1638L25.074 13.7168C25.242 13.5091 25.454 13.3414 25.6947 13.2258C25.9355 13.1102 26.1989 13.0496 26.466 13.0483C26.6011 13.0485 26.7357 13.0643 26.8671 13.0955C27.1963 13.1686 27.4983 13.3327 27.7389 13.569C27.9794 13.8054 28.1487 14.1046 28.2276 14.4324L28.6601 16.2412C28.6686 16.2772 28.686 16.3105 28.7108 16.338C28.7355 16.3655 28.7668 16.3863 28.8017 16.3985L30.5397 17.0669C30.8531 17.188 31.1265 17.3942 31.3288 17.6624C31.5312 17.9307 31.6544 18.2502 31.6847 18.5848C31.715 18.9194 31.651 19.2558 31.5001 19.556C31.3492 19.8562 31.1173 20.1081 30.8307 20.2834L29.2578 21.2586C29.2266 21.2781 29.2004 21.3046 29.1813 21.336C29.1622 21.3674 29.1507 21.4028 29.1477 21.4395L29.0533 23.2955C29.0375 23.6339 28.9266 23.961 28.7332 24.2393C28.5399 24.5175 28.2719 24.7355 27.9602 24.8683C27.7338 24.9645 27.4906 25.0152 27.2446 25.0177C26.8162 25.016 26.4029 24.8596 26.0807 24.5773L25.9155 24.4436C23.4584 26.3603 21.2428 28.5679 19.3174 31.0181C19.2133 31.1445 19.0824 31.2461 18.9341 31.3155C18.7858 31.3849 18.6239 31.4203 18.4602 31.4192C18.3559 31.4351 18.2499 31.4351 18.1456 31.4192C17.9169 31.3575 17.7107 31.2312 17.5517 31.0555C17.3927 30.8798 17.2877 30.6621 17.2491 30.4283C16.5963 26.3861 19.4353 21.5968 21.0632 19.2453L20.2139 17.932C20.0625 17.6953 19.9708 17.4255 19.9465 17.1456C17.9934 21.1825 16.7687 25.5328 16.329 29.9958C16.3253 30.3172 16.2141 30.6281 16.0131 30.879C15.8121 31.1298 15.533 31.3062 15.2201 31.3799C15.16 31.3874 15.0993 31.3874 15.0392 31.3799C14.8239 31.3769 14.6142 31.3104 14.4365 31.1887C14.2588 31.067 14.121 30.8955 14.0405 30.6957C12.6436 27.0675 12.0455 23.1807 12.2867 19.3004L11.6891 19.3948C11.3352 21.5732 11.3745 25.4503 11.8463 30.1138C11.8667 30.3451 11.8198 30.5775 11.711 30.7827C11.6023 30.988 11.4365 31.1574 11.2336 31.2705C11.0307 31.3836 10.7994 31.4355 10.5676 31.42C10.3359 31.4046 10.1135 31.3224 9.92745 31.1833C6.54582 28.5724 5.05161 22.5326 4.49324 19.3869L4.12362 19.3397C3.78903 19.2983 3.47279 19.1638 3.21086 18.9516C2.94894 18.7393 2.75187 18.4577 2.64207 18.139C2.53226 17.8202 2.51415 17.477 2.58977 17.1485C2.66539 16.8199 2.83171 16.5192 3.06982 16.2805L4.37529 14.9593C4.40229 14.9334 4.42224 14.901 4.43325 14.8652C4.44425 14.8295 4.44597 14.7915 4.43821 14.7549L4.08431 12.9303C4.02085 12.5998 4.05131 12.258 4.17225 11.9438C4.29318 11.6297 4.49974 11.3557 4.7685 11.153C5.08078 10.9167 5.46213 10.7895 5.85377 10.7913C6.12673 10.7946 6.39548 10.8591 6.6402 10.98L8.29957 11.8136C8.33417 11.8293 8.37169 11.8373 8.40966 11.8373C8.44762 11.8373 8.48517 11.8293 8.51977 11.8136L10.1476 10.9171C10.4126 10.7705 10.7099 10.6921 11.0127 10.689C11.3823 10.6883 11.7427 10.8039 12.0429 11.0193C12.3256 11.2063 12.5495 11.4695 12.6887 11.7785C12.8279 12.0875 12.8767 12.4296 12.8294 12.7652L12.5463 14.6054C12.5415 14.6415 12.5455 14.6781 12.5578 14.7123C12.5701 14.7465 12.5904 14.7773 12.617 14.802L12.7901 14.9672C13.2241 12.5359 14.0614 10.1941 15.2673 8.03878L15.4954 7.6377L16.038 6.70972L15.8492 6.26932C15.7167 5.95974 15.6744 5.61898 15.7273 5.2864C15.7802 4.95382 15.9261 4.64297 16.1481 4.38976C16.3141 4.19273 16.5212 4.03435 16.7549 3.92568C16.9885 3.81701 17.2431 3.76068 17.5007 3.76062C17.6574 3.76217 17.8133 3.7833 17.9647 3.82353L19.7656 4.28753H19.8207C19.8752 4.28583 19.9276 4.26652 19.9701 4.23248L21.3778 3.01351C21.7017 2.72884 22.1184 2.57224 22.5496 2.57312M22.5496 1.00027C21.7451 0.990149 20.9637 1.26922 20.3476 1.78669L19.4747 2.57312L18.3579 2.28214C18.0779 2.20976 17.79 2.17277 17.5007 2.17204C16.9716 2.17345 16.4502 2.29932 15.9786 2.53947C15.5071 2.77962 15.0987 3.12732 14.7863 3.55448C14.474 3.98164 14.2665 4.47628 14.1807 4.99844C14.0948 5.52059 14.133 6.05562 14.2921 6.5603C14.2371 6.6468 14.1899 6.74117 14.1348 6.83555L13.9068 7.22876C13.4706 7.98923 13.0844 8.77732 12.7507 9.58804C12.234 9.28259 11.6444 9.12229 11.0442 9.12405C10.4745 9.12688 9.91473 9.27292 9.41628 9.54872L8.40966 10.0992L7.37944 9.58804C6.90842 9.35133 6.38879 9.22748 5.86164 9.22628C5.36524 9.228 4.8753 9.33899 4.42662 9.55137C3.97794 9.76375 3.58153 10.0723 3.26551 10.4551C2.94949 10.8379 2.72162 11.2856 2.5981 11.7664C2.47458 12.2472 2.45841 12.7493 2.55077 13.2371L2.76312 14.3695L1.9767 15.1559C1.53171 15.6009 1.22172 16.1627 1.08256 16.7764C0.943395 17.3901 0.980734 18.0307 1.19027 18.6241C1.35045 19.0925 1.61172 19.5198 1.95558 19.8759C2.29943 20.232 2.71744 20.5081 3.17993 20.6845C3.92703 24.3021 5.58639 29.7599 8.99947 32.3944C9.48503 32.7657 10.079 32.9674 10.6903 32.9685C11.1275 32.9695 11.5587 32.8666 11.9484 32.6684C12.338 32.4701 12.675 32.1822 12.9316 31.8282C13.1782 32.1646 13.5001 32.4387 13.8715 32.6285C14.2429 32.8183 14.6536 32.9186 15.0707 32.9213C15.2146 32.9333 15.3593 32.9333 15.5032 32.9213C15.9526 32.8428 16.3762 32.6566 16.7379 32.3787C17.0359 32.6272 17.3849 32.8071 17.7603 32.9056C17.9989 32.9689 18.2448 33.0006 18.4916 32.9999C18.8866 33.0025 19.2772 32.917 19.6349 32.7497C19.9927 32.5824 20.3087 32.3374 20.5599 32.0326C22.2268 29.9839 24.0688 28.0841 26.0649 26.3546C26.4767 26.5221 26.9181 26.605 27.3626 26.5982C27.8071 26.5915 28.2457 26.4953 28.6523 26.3153C29.2317 26.0706 29.7299 25.6666 30.089 25.1501C30.4481 24.6337 30.6535 24.0261 30.6812 23.3977L30.7442 22.2416L31.7272 21.6439C32.2655 21.315 32.7009 20.8418 32.9838 20.2779C33.2667 19.7141 33.3858 19.0822 33.3277 18.454C33.2695 17.8258 33.0364 17.2266 32.6548 16.7242C32.2732 16.2219 31.7584 15.8366 31.1688 15.6121L30.0993 15.2031L29.824 14.0785C29.6804 13.4655 29.3665 12.9055 28.9184 12.463C28.4704 12.0206 27.9066 11.7137 27.2918 11.5777C27.7459 11.2515 28.112 10.8179 28.3574 10.3155C28.6029 9.81317 28.7199 9.25781 28.6981 8.69914C28.6763 8.14047 28.5163 7.59592 28.2324 7.11424C27.9486 6.63256 27.5497 6.22877 27.0716 5.93902L26.0807 5.34134L26.0099 4.19315C25.9743 3.56361 25.7621 2.95682 25.3977 2.44223C25.0333 1.92763 24.5314 1.52603 23.9494 1.28338C23.5331 1.11082 23.0867 1.02261 22.6361 1.02386L22.5496 1.00027Z" fill="white"/>
<path d="M15.9747 8.36937C12.4201 14.4878 12.3021 24.5383 14.7951 30.3107C14.9838 30.7511 15.5343 30.4758 15.5815 29.8545C15.9905 24.4046 18.6643 15.5494 22.2504 12.7183C24.9793 10.5635 22.4313 3.81596 17.351 6.19883C16.8225 6.8757 16.3615 7.60268 15.9747 8.36937Z" fill="white"/>
<path d="M15.0785 31.3091C14.8632 31.3061 14.6535 31.2396 14.4758 31.1179C14.2981 30.9961 14.1603 30.8246 14.0797 30.6249C11.6261 24.9547 11.3902 14.684 15.2987 7.9758L15.5268 7.57473C16.4312 6.00187 16.6592 5.65584 17.021 5.4907C20.0094 4.08299 22.2271 5.43564 23.3124 7.16578C24.4842 9.06107 24.5943 11.8843 22.754 13.3392C19.3803 16.0052 16.7693 24.7896 16.384 29.9092C16.3803 30.2306 16.2691 30.5415 16.0681 30.7924C15.8671 31.0432 15.588 31.2196 15.2751 31.2933C15.2106 31.3074 15.1445 31.3127 15.0785 31.3091ZM17.7996 6.85907C17.6108 7.11073 17.1783 7.85784 16.8873 8.36902L16.6592 8.76223C13.4427 14.2672 13.2225 22.8786 14.937 28.4229C15.6605 22.9179 18.177 14.9435 21.7631 12.1124C22.8641 11.2395 22.754 9.28914 21.9598 8.00726C21.5351 7.28375 20.2453 5.77381 17.7996 6.85907Z" fill="#D9D9D9"/>
<path d="M23.6021 4.25596L23.7122 6.11192C23.7265 6.27195 23.7781 6.42641 23.8628 6.56296C23.9474 6.69951 24.0629 6.81436 24.1998 6.89835L25.7727 7.85779C25.9357 7.95557 26.0679 8.09717 26.1543 8.26645C26.2407 8.43573 26.2779 8.62588 26.2615 8.81524C26.2451 9.0046 26.1758 9.18554 26.0616 9.33745C25.9474 9.48936 25.7927 9.60612 25.6154 9.67443L23.8931 10.3508C23.7398 10.4116 23.6034 10.5084 23.4953 10.6329C23.3872 10.7574 23.3105 10.9061 23.2718 11.0664L22.855 12.8752C22.8132 13.061 22.7199 13.2313 22.5859 13.3666C22.4518 13.5019 22.2823 13.5967 22.0969 13.6402C21.9114 13.6837 21.7175 13.6741 21.5373 13.6125C21.357 13.5509 21.1978 13.4399 21.0777 13.292L19.8981 11.8607C19.7924 11.7342 19.6581 11.6347 19.5063 11.5704C19.3545 11.5061 19.1895 11.4789 19.0251 11.4911L17.1692 11.6562C16.9779 11.6752 16.7852 11.6394 16.6135 11.5531C16.4418 11.4667 16.2981 11.3334 16.1993 11.1686C16.1004 11.0038 16.0503 10.8143 16.055 10.6222C16.0596 10.4301 16.1187 10.2432 16.2255 10.0834L17.2242 8.51053C17.313 8.37308 17.3673 8.21618 17.3824 8.05322C17.3974 7.89026 17.3729 7.72608 17.3107 7.57468L16.5794 5.86027C16.5063 5.68501 16.4836 5.49288 16.5136 5.3054C16.5436 5.11793 16.6252 4.94251 16.7493 4.79882C16.8734 4.65513 17.0351 4.54884 17.2162 4.49185C17.3973 4.43486 17.5907 4.42942 17.7747 4.47616L19.5756 4.94801C19.7354 4.98748 19.9024 4.98809 20.0624 4.94978C20.2225 4.91147 20.3711 4.83535 20.4957 4.72781L21.8956 3.50886C22.0417 3.37727 22.2226 3.29059 22.4167 3.2592C22.6107 3.22782 22.8098 3.25306 22.9899 3.33191C23.17 3.41076 23.3235 3.53986 23.4321 3.70375C23.5407 3.86764 23.5997 4.05937 23.6021 4.25596Z" fill="#D9D9D9"/>
<path d="M21.8808 14.4797C21.6155 14.4794 21.3537 14.4199 21.1142 14.3057C20.8748 14.1914 20.6639 14.0252 20.4967 13.8191L19.3171 12.3879C19.2939 12.3584 19.2639 12.3351 19.2296 12.32C19.1953 12.3049 19.1578 12.2985 19.1205 12.3013L17.2645 12.4586C16.9299 12.4876 16.5939 12.4224 16.2944 12.2704C15.9949 12.1185 15.7439 11.8858 15.5696 11.5987C15.3954 11.3116 15.305 10.9815 15.3084 10.6457C15.3119 10.3098 15.4093 9.98169 15.5894 9.69827L16.5882 8.12542C16.6055 8.09129 16.6145 8.05357 16.6145 8.01532C16.6145 7.97706 16.6055 7.93935 16.5882 7.90522L15.8647 6.19868C15.733 5.8887 15.6909 5.54801 15.7432 5.2153C15.7954 4.88259 15.9399 4.5712 16.1602 4.31648C16.3805 4.06177 16.6678 3.87393 16.9895 3.7743C17.3112 3.67468 17.6545 3.66726 17.9802 3.75289L19.7811 4.21688C19.8165 4.22532 19.8534 4.22546 19.8889 4.21727C19.9243 4.20909 19.9574 4.1928 19.9856 4.1697L21.3933 2.95074C21.647 2.72973 21.9576 2.58422 22.2898 2.53072C22.622 2.47722 22.9625 2.51786 23.2728 2.64803C23.5831 2.77821 23.8507 2.99271 24.0453 3.26722C24.2399 3.54173 24.3537 3.86527 24.3738 4.20115L24.4839 6.05712C24.4848 6.09427 24.4955 6.13052 24.5148 6.16226C24.5341 6.194 24.5615 6.22012 24.594 6.238L26.1669 7.19743C26.4564 7.37009 26.6917 7.62054 26.8459 7.9203C27.0001 8.22006 27.0671 8.55709 27.0392 8.89304C27.0114 9.22899 26.8898 9.55038 26.6883 9.82064C26.4868 10.0909 26.2135 10.2992 25.8995 10.4218L24.1693 11.0981C24.1355 11.1142 24.1054 11.1372 24.081 11.1656C24.0566 11.1941 24.0385 11.2274 24.0278 11.2633L23.611 13.072C23.5372 13.4006 23.3717 13.7014 23.1336 13.9394C22.8955 14.1775 22.5947 14.3431 22.2662 14.4168C22.141 14.4543 22.0115 14.4754 21.8808 14.4797ZM19.1755 10.7285C19.4413 10.7284 19.7037 10.7868 19.9443 10.8996C20.1849 11.0124 20.3977 11.1769 20.5675 11.3812L21.7471 12.8204C21.7751 12.8521 21.8108 12.8761 21.8508 12.8899C21.8908 12.9037 21.9336 12.9068 21.9752 12.899C22.0184 12.8916 22.0582 12.8709 22.0891 12.8399C22.1201 12.809 22.1408 12.7692 22.1482 12.726L22.5729 10.9172C22.6386 10.6323 22.7723 10.3676 22.9627 10.1457C23.1531 9.92385 23.3944 9.75142 23.666 9.64322L25.3962 8.96689C25.437 8.95247 25.4724 8.9259 25.4977 8.89076C25.523 8.85562 25.537 8.81358 25.5377 8.77029C25.5434 8.72679 25.5359 8.6826 25.5163 8.64336C25.4967 8.60413 25.4658 8.57165 25.4276 8.55009L23.8548 7.59851C23.604 7.44684 23.3936 7.23674 23.2416 6.98613C23.0896 6.73553 23.0004 6.45186 22.9818 6.15935L22.8717 4.30339C22.869 4.26093 22.8545 4.2201 22.8298 4.18547C22.805 4.15085 22.7711 4.12384 22.7319 4.10748C22.6926 4.09111 22.6495 4.08606 22.6075 4.09288C22.5655 4.09971 22.5263 4.11815 22.4943 4.1461L21.0865 5.36507C20.8666 5.5562 20.6036 5.69111 20.3201 5.75823C20.0365 5.82535 19.7409 5.82267 19.4586 5.75041L17.6577 5.27856C17.6157 5.26835 17.5716 5.26952 17.5302 5.28196C17.4887 5.2944 17.4513 5.31765 17.4218 5.34933C17.3987 5.38581 17.3865 5.42807 17.3865 5.47123C17.3865 5.51438 17.3987 5.55665 17.4218 5.59312L18.1453 7.30753C18.2571 7.57643 18.3026 7.86826 18.2779 8.15842C18.2533 8.44857 18.1593 8.72855 18.0038 8.97476L17.005 10.5476C16.9819 10.5841 16.9697 10.6264 16.9697 10.6695C16.9697 10.7127 16.9819 10.7549 17.005 10.7914C17.028 10.8282 17.0607 10.858 17.0996 10.8775C17.1385 10.8969 17.1819 10.9052 17.2252 10.9015L19.0733 10.7442L19.1755 10.7285Z" fill="#D9D9D9"/>
<path d="M5.09828 17.948C5.3578 19.7096 6.67112 27.5817 10.446 30.4836C10.509 30.5335 10.5853 30.5636 10.6653 30.5704C10.7454 30.5771 10.8256 30.5601 10.8961 30.5216C10.9666 30.483 11.0241 30.4245 11.0615 30.3534C11.099 30.2823 11.1146 30.2018 11.1066 30.1218C10.8234 27.3615 10.0999 18.7816 11.7593 17.0672C13.4187 15.3528 6.97783 17.0672 5.38925 17.4997C5.29505 17.5271 5.21383 17.5874 5.16041 17.6697C5.107 17.752 5.08494 17.8508 5.09828 17.948Z" fill="white"/>
<path d="M10.6981 31.3566C10.434 31.3589 10.1766 31.2731 9.96671 31.1128C6.03458 28.0772 4.65832 20.3545 4.32016 18.066C4.28206 17.7797 4.34751 17.4893 4.50469 17.247C4.66187 17.0048 4.90045 16.8267 5.17738 16.7448C11.9485 14.8102 12.4046 15.5652 12.7035 16.0685C12.9001 16.3909 12.9945 16.9257 12.326 17.6413C11.4059 18.5929 11.225 23.5867 11.8856 30.0669C11.9033 30.2331 11.8857 30.4011 11.834 30.56C11.7824 30.719 11.6977 30.8652 11.5856 30.9891C11.4735 31.1131 11.3365 31.212 11.1836 31.2794C11.0306 31.3468 10.8652 31.3811 10.6981 31.3802V31.3566ZM5.93235 18.1682C6.23119 20.1028 7.39509 26.2842 10.2262 29.2332C9.80156 24.6169 9.63641 19.2771 10.7925 17.0908C9.14846 17.3318 7.52416 17.6919 5.93235 18.1682Z" fill="#D9D9D9"/>
<path d="M12.0977 12.6001L11.8146 14.4403C11.7912 14.6028 11.8076 14.7686 11.8624 14.9234C11.9172 15.0782 12.0087 15.2174 12.1292 15.329L13.4818 16.603C13.6184 16.7334 13.7162 16.8992 13.7643 17.0818C13.8124 17.2645 13.809 17.4569 13.7544 17.6377C13.6999 17.8185 13.5963 17.9807 13.4551 18.1062C13.314 18.2318 13.1409 18.3157 12.9549 18.3489L11.1147 18.6477C10.9455 18.6683 10.7844 18.7319 10.6468 18.8324C10.5091 18.9329 10.3994 19.0669 10.3282 19.2218L9.54181 20.8969C9.45856 21.068 9.32889 21.2122 9.16758 21.3131C9.00627 21.414 8.81982 21.4675 8.62955 21.4675C8.43928 21.4675 8.25283 21.414 8.09152 21.3131C7.93021 21.2122 7.80053 21.068 7.71729 20.8969L6.86796 19.2454C6.79098 19.0977 6.6791 18.9711 6.54205 18.8765C6.40499 18.782 6.2469 18.7223 6.08154 18.7028L4.23343 18.4983C4.04482 18.4755 3.86641 18.4001 3.71851 18.2809C3.57062 18.1616 3.45918 18.0032 3.39689 17.8237C3.33461 17.6443 3.32397 17.4509 3.3662 17.2656C3.40842 17.0804 3.50181 16.9108 3.63574 16.776L4.94121 15.4548C5.05715 15.3361 5.14272 15.1912 5.19064 15.0324C5.23856 14.8736 5.24742 14.7055 5.21646 14.5426L4.87043 12.718C4.83322 12.5323 4.84915 12.3399 4.91642 12.1628C4.98368 11.9857 5.09955 11.8313 5.25069 11.7171C5.40182 11.6029 5.58208 11.5337 5.77079 11.5174C5.95949 11.5011 6.14898 11.5384 6.31745 11.6249L7.98467 12.4585C8.13 12.5356 8.29202 12.576 8.45653 12.576C8.62105 12.576 8.78307 12.5356 8.9284 12.4585L10.5563 11.562C10.7228 11.4564 10.9164 11.4017 11.1136 11.4044C11.3107 11.4071 11.5027 11.4672 11.6662 11.5773C11.8297 11.6875 11.9576 11.8428 12.0343 12.0245C12.1109 12.2061 12.1329 12.4061 12.0977 12.6001Z" fill="#D9D9D9"/>
<path d="M8.63831 22.2577C8.31243 22.2527 7.99402 22.1593 7.71702 21.9876C7.44003 21.8158 7.21485 21.5722 7.06545 21.2825L6.2161 19.631C6.19747 19.5977 6.1715 19.5691 6.14016 19.5473C6.10883 19.5255 6.07296 19.5111 6.03524 19.5052L4.195 19.2771C3.86041 19.2357 3.54414 19.1012 3.28222 18.889C3.02029 18.6767 2.82323 18.3951 2.71342 18.0764C2.60362 17.7576 2.5855 17.4144 2.66113 17.0859C2.73675 16.7573 2.90306 16.4566 3.14117 16.2179L4.44664 14.8967C4.47364 14.8708 4.49359 14.8384 4.5046 14.8026C4.51561 14.7669 4.51733 14.7289 4.50957 14.6923L4.15567 12.8677C4.0916 12.5371 4.12153 12.1951 4.24207 11.8806C4.3626 11.5661 4.5689 11.2918 4.83755 11.0886C5.1062 10.8855 5.42642 10.7618 5.76185 10.7315C6.09729 10.7013 6.43448 10.7657 6.73514 10.9174L8.39452 11.751C8.42911 11.7667 8.46663 11.7747 8.5046 11.7747C8.54257 11.7747 8.58011 11.7667 8.61471 11.751L10.2426 10.8545C10.5353 10.6888 10.8694 10.6104 11.2052 10.6285C11.5411 10.6467 11.8647 10.7605 12.1379 10.9567C12.4206 11.1437 12.6445 11.4069 12.7837 11.7159C12.9229 12.0249 12.9716 12.367 12.9243 12.7026L12.6412 14.5428C12.6365 14.5789 12.6404 14.6155 12.6528 14.6497C12.6651 14.6839 12.6854 14.7147 12.712 14.7394L14.0646 16.0135C14.3098 16.2431 14.4858 16.5368 14.5727 16.8613C14.6597 17.1857 14.6543 17.528 14.5569 17.8495C14.4596 18.171 14.2742 18.4589 14.0218 18.6806C13.7695 18.9023 13.4602 19.049 13.1288 19.1041L11.2964 19.4108C11.2595 19.416 11.2244 19.4302 11.1942 19.4522C11.1641 19.4741 11.1398 19.5031 11.1234 19.5366L10.337 21.2196C10.1977 21.5221 9.97664 21.7796 9.69869 21.9631C9.42074 22.1465 9.09704 22.2486 8.76414 22.2577H8.63831ZM5.89366 12.3015C5.84522 12.3027 5.7984 12.3192 5.75998 12.3487C5.72387 12.3732 5.69619 12.4083 5.68071 12.4491C5.66523 12.4899 5.6627 12.5345 5.67346 12.5768L6.01949 14.4013C6.06849 14.6833 6.04985 14.973 5.96509 15.2464C5.88032 15.5198 5.73185 15.7693 5.53191 15.9741L4.23431 17.3189C4.20467 17.3496 4.18389 17.3877 4.17419 17.4293C4.1645 17.4708 4.16625 17.5142 4.17926 17.5549C4.19087 17.5965 4.2154 17.6334 4.24931 17.6603C4.28323 17.6871 4.3248 17.7025 4.36802 17.7043L6.2161 17.9402C6.50613 17.9764 6.78301 18.0827 7.02278 18.2499C7.26256 18.417 7.45803 18.64 7.59235 18.8996L8.4417 20.5511C8.46202 20.5897 8.49261 20.6218 8.53009 20.644C8.56757 20.6662 8.61047 20.6776 8.65403 20.677C8.69664 20.678 8.73851 20.6656 8.77376 20.6416C8.80901 20.6177 8.83589 20.5833 8.85063 20.5433L9.63706 18.8603C9.76244 18.5966 9.94931 18.3668 10.182 18.1902C10.4146 18.0137 10.6862 17.8956 10.974 17.8458L12.8064 17.547C12.8493 17.5414 12.8898 17.5237 12.923 17.496C12.9563 17.4682 12.981 17.4316 12.9942 17.3903C13.0074 17.3491 13.0085 17.3049 12.9976 17.2631C12.9866 17.2212 12.9639 17.1833 12.9322 17.1538L11.5717 15.8798C11.3597 15.6818 11.1995 15.4349 11.1049 15.1608C11.0104 14.8866 10.9843 14.5935 11.029 14.3069L11.3043 12.4667C11.3137 12.4247 11.3097 12.3808 11.2927 12.3413C11.2758 12.3018 11.2468 12.2686 11.2099 12.2465C11.1738 12.2225 11.1314 12.2097 11.088 12.2097C11.0446 12.2097 11.0022 12.2225 10.9661 12.2465L9.33821 13.143C9.07989 13.2787 8.79246 13.3496 8.50067 13.3496C8.20887 13.3496 7.92144 13.2787 7.66312 13.143L6.00377 12.3094L5.89366 12.3015Z" fill="#D9D9D9"/>
<path d="M22.4399 18.6317C21.4883 19.8979 17.336 25.7096 18.0673 30.2C18.0762 30.275 18.1057 30.346 18.1525 30.4052C18.1992 30.4645 18.2615 30.5096 18.3323 30.5357C18.4031 30.5617 18.4798 30.5677 18.5538 30.5529C18.6278 30.538 18.6962 30.503 18.7515 30.4517C20.3244 28.5564 25.3575 22.7605 27.6067 22.9099C29.8559 23.0593 24.3194 19.4417 22.9353 18.5688C22.8598 18.5154 22.7671 18.4923 22.6754 18.5039C22.5836 18.5156 22.4996 18.5612 22.4399 18.6317Z" fill="white"/>
<path d="M18.4989 31.3568C18.3946 31.3727 18.2886 31.3727 18.1843 31.3568C17.9555 31.2951 17.7494 31.1688 17.5904 30.9931C17.4314 30.8174 17.3264 30.5997 17.2878 30.3659C16.5014 25.6473 20.5593 19.8592 21.8097 18.1999C21.9885 17.963 22.2515 17.804 22.5443 17.7557C22.8371 17.7074 23.1372 17.7735 23.3826 17.9404C29.383 21.6995 29.1314 22.4702 28.9505 23.0364C28.8561 23.3195 28.5416 23.8228 27.59 23.7363C26.371 23.6341 23.0759 26.5753 19.3875 30.995C19.2763 31.1185 19.1386 31.2152 18.9847 31.2778C18.8308 31.3405 18.6647 31.3675 18.4989 31.3568ZM22.8242 19.4346C21.7311 20.9366 18.6955 25.4586 18.7663 29.2177C21.3772 26.1664 24.5858 22.9263 26.8036 22.2342C25.5381 21.2172 24.2089 20.2821 22.8242 19.4346Z" fill="#D9D9D9"/>
<path d="M30.4675 19.5609L28.8946 20.536C28.7555 20.6176 28.6384 20.7318 28.5534 20.8688C28.4685 21.0059 28.4182 21.1616 28.4071 21.3225L28.3127 23.1784C28.3028 23.3679 28.2399 23.5507 28.1313 23.7063C28.0227 23.8618 27.8726 23.9837 27.6982 24.0583C27.5237 24.1328 27.3319 24.1569 27.1444 24.1279C26.9569 24.0989 26.7813 24.0179 26.6376 23.8941L25.222 22.6909C25.0973 22.5837 24.9481 22.5089 24.7876 22.4732C24.6271 22.4376 24.4603 22.4421 24.3019 22.4864L22.5089 22.9661C22.3257 23.016 22.1322 23.0135 21.9505 22.9588C21.7687 22.9042 21.6059 22.7997 21.4805 22.6571C21.3552 22.5146 21.2723 22.3397 21.2414 22.1525C21.2105 21.9652 21.2327 21.773 21.3056 21.5977L22.0134 19.8754C22.0756 19.7227 22.1002 19.5573 22.0851 19.3931C22.0701 19.2288 22.0158 19.0706 21.9269 18.9317L20.9124 17.3589C20.8063 17.1996 20.7474 17.0136 20.7425 16.8222C20.7376 16.6309 20.787 16.4421 20.8848 16.2776C20.9827 16.1132 21.1251 15.9797 21.2956 15.8927C21.466 15.8057 21.6577 15.7688 21.8483 15.786L23.6964 15.9276C23.861 15.9424 24.0268 15.9164 24.1791 15.852C24.3313 15.7875 24.4653 15.6865 24.5693 15.558L25.7411 14.1109C25.8601 13.9631 26.0181 13.8515 26.1973 13.789C26.3765 13.7265 26.5697 13.7155 26.7548 13.7573C26.9399 13.7991 27.1096 13.892 27.2446 14.0254C27.3796 14.1588 27.4744 14.3274 27.5184 14.512L27.9509 16.3208C27.9914 16.4803 28.0687 16.6281 28.1766 16.7524C28.2845 16.8767 28.42 16.974 28.5722 17.0365L30.3102 17.6971C30.5002 17.7587 30.6678 17.8751 30.7919 18.0315C30.9161 18.188 30.9912 18.3777 31.008 18.5767C31.0248 18.7757 30.9825 18.9753 30.8863 19.1504C30.7902 19.3255 30.6445 19.4683 30.4675 19.5609Z" fill="#D9D9D9"/>
<path d="M27.284 24.9549C26.8556 24.9532 26.4423 24.7968 26.1201 24.5145L24.7045 23.3113C24.6764 23.2882 24.6433 23.2719 24.6078 23.2637C24.5724 23.2555 24.5355 23.2557 24.5001 23.2641L22.707 23.7438C22.382 23.83 22.0394 23.8239 21.7177 23.7262C21.3959 23.6285 21.1078 23.443 20.8856 23.1906C20.6635 22.9382 20.516 22.6289 20.4599 22.2974C20.4038 21.9658 20.4412 21.6252 20.5679 21.3138L21.2836 19.5994C21.2991 19.5661 21.3071 19.5299 21.3071 19.4932C21.3071 19.4565 21.2991 19.4203 21.2836 19.387L20.277 17.8142C20.0948 17.5316 19.9951 17.2039 19.9888 16.8678C19.9826 16.5317 20.0701 16.2005 20.2417 15.9114C20.4132 15.6223 20.6618 15.3867 20.9598 15.231C21.2578 15.0754 21.5932 15.0058 21.9285 15.0302L23.7766 15.1796C23.8141 15.1849 23.8524 15.1796 23.8871 15.1643C23.9218 15.149 23.9516 15.1244 23.9732 15.0931L25.1449 13.6461C25.3584 13.3891 25.639 13.1963 25.9554 13.089C26.2718 12.9817 26.6117 12.9641 26.9375 13.0382C27.2633 13.1123 27.5622 13.2752 27.801 13.5089C28.0399 13.7425 28.2093 14.0377 28.2906 14.3618L28.7232 16.1705C28.7317 16.2065 28.7491 16.2398 28.7738 16.2673C28.7986 16.2948 28.8298 16.3156 28.8647 16.3278L30.6027 16.9963C30.9162 17.1173 31.1895 17.3236 31.3919 17.5918C31.5942 17.86 31.7175 18.1795 31.7478 18.5141C31.778 18.8487 31.7141 19.1851 31.5632 19.4853C31.4122 19.7855 31.1803 20.0375 30.8937 20.2128L29.3209 21.1879C29.2897 21.2074 29.2635 21.2339 29.2444 21.2653C29.2253 21.2967 29.2138 21.3322 29.2108 21.3688L29.1164 23.2248C29.1006 23.5632 28.9896 23.8904 28.7963 24.1686C28.6029 24.4468 28.335 24.6648 28.0233 24.7976C27.79 24.8996 27.5385 24.9531 27.284 24.9549ZM24.5551 21.6834C24.9848 21.6832 25.4004 21.8366 25.7269 22.1159L27.1425 23.3192C27.1745 23.3471 27.2138 23.3655 27.2557 23.3724C27.2977 23.3792 27.3408 23.3741 27.3801 23.3578C27.4193 23.3414 27.4532 23.3144 27.478 23.2798C27.5027 23.2452 27.5172 23.2043 27.5199 23.1619L27.6143 21.3059C27.63 21.0135 27.7161 20.7292 27.8654 20.4772C28.0146 20.2253 28.2226 20.0131 28.4715 19.8589L30.0444 18.8916C30.0822 18.8715 30.1139 18.8415 30.136 18.8048C30.158 18.768 30.1697 18.726 30.1697 18.6832C30.1697 18.6403 30.158 18.5983 30.136 18.5616C30.1139 18.5249 30.0822 18.4948 30.0444 18.4748L28.3064 17.8142C28.0344 17.7097 27.7921 17.5405 27.6002 17.3212C27.4084 17.102 27.2729 16.8393 27.2054 16.5559L26.765 14.7471C26.7575 14.7039 26.7369 14.6641 26.7059 14.6332C26.6749 14.6022 26.6351 14.5816 26.592 14.5741C26.5504 14.5646 26.507 14.5669 26.4667 14.5808C26.4264 14.5947 26.3908 14.6196 26.3639 14.6527L25.2 16.0998C25.0128 16.3313 24.7712 16.5128 24.4967 16.6281C24.2223 16.7434 23.9235 16.7888 23.6271 16.7604L21.7712 16.6188C21.7288 16.6137 21.6859 16.6215 21.648 16.6411C21.6101 16.6607 21.5791 16.6913 21.5588 16.7289C21.5338 16.7646 21.5204 16.8072 21.5204 16.8508C21.5204 16.8944 21.5338 16.937 21.5588 16.9727L22.5733 18.5455C22.732 18.7903 22.8285 19.0701 22.8545 19.3606C22.8806 19.6512 22.8353 19.9437 22.7228 20.2128L22.0149 21.935C21.997 21.9738 21.9912 22.017 21.9982 22.0591C22.0053 22.1011 22.0248 22.1401 22.0543 22.171C22.0827 22.2041 22.1201 22.2284 22.1619 22.2409C22.2037 22.2535 22.2482 22.2538 22.2902 22.2417L24.0833 21.762C24.2367 21.7164 24.3952 21.69 24.5551 21.6834Z" fill="#D9D9D9"/>
</g>
<defs>
<filter id="filter0_d_795_960" x="0" y="0" width="36.342" height="36" filterUnits="userSpaceOnUse" color-interpolation-filters="sRGB">
<feFlood flood-opacity="0" result="BackgroundImageFix"/>
<feColorMatrix in="SourceAlpha" type="matrix" values="0 0 0 0 0 0 0 0 0 0 0 0 0 0 0 0 0 0 127 0" result="hardAlpha"/>
<feOffset dx="1" dy="1"/>
<feGaussianBlur stdDeviation="1"/>
<feComposite in2="hardAlpha" operator="out"/>
<feColorMatrix type="matrix" values="0 0 0 0 0 0 0 0 0 0 0 0 0 0 0 0 0 0 0.1 0"/>
<feBlend mode="normal" in2="BackgroundImageFix" result="effect1_dropShadow_795_960"/>
<feBlend mode="normal" in="SourceGraphic" in2="effect1_dropShadow_795_960" result="shape"/>
</filter>
</defs>
</svg>
