<svg width="25" height="26" viewBox="0 0 25 26" fill="none" xmlns="http://www.w3.org/2000/svg">
<path d="M9.35802 0H1.41814C0.634922 0 0 0.634922 0 1.41814V13.2133C0 13.9965 0.634922 14.6315 1.41814 14.6315H9.35802C10.1412 14.6315 10.7762 13.9965 10.7762 13.2133V1.41814C10.7762 0.634922 10.1412 0 9.35802 0Z" fill="#FF6200"/>
<path d="M23.5816 11.1328H15.6418C14.8586 11.1328 14.2236 11.7677 14.2236 12.551V24.3461C14.2236 25.1293 14.8586 25.7643 15.6418 25.7643H23.5816C24.3649 25.7643 24.9998 25.1293 24.9998 24.3461V12.551C24.9998 11.7677 24.3649 11.1328 23.5816 11.1328Z" fill="#FF6200"/>
<path d="M9.35802 18.6562H1.41814C0.634922 18.6562 0 19.2912 0 20.0744V24.3458C0 25.129 0.634922 25.7639 1.41814 25.7639H9.35802C10.1412 25.7639 10.7762 25.129 10.7762 24.3458V20.0744C10.7762 19.2912 10.1412 18.6562 9.35802 18.6562Z" fill="#FF6200"/>
<path d="M23.5816 0H15.6418C14.8586 0 14.2236 0.634922 14.2236 1.41814V5.68954C14.2236 6.47275 14.8586 7.10768 15.6418 7.10768H23.5816C24.3649 7.10768 24.9998 6.47275 24.9998 5.68954V1.41814C24.9998 0.634922 24.3649 0 23.5816 0Z" fill="#FF6200"/>
</svg>
