<svg width="30" height="31" viewBox="0 0 30 31" fill="none" xmlns="http://www.w3.org/2000/svg">
<path d="M11.02 0H1.67C0.747684 0 0 0.747684 0 1.67V15.56C0 16.4823 0.747684 17.23 1.67 17.23H11.02C11.9423 17.23 12.69 16.4823 12.69 15.56V1.67C12.69 0.747684 11.9423 0 11.02 0Z" fill="black"/>
<path d="M27.77 13.1099H18.42C17.4977 13.1099 16.75 13.8575 16.75 14.7799V28.6699C16.75 29.5922 17.4977 30.3399 18.42 30.3399H27.77C28.6923 30.3399 29.44 29.5922 29.44 28.6699V14.7799C29.44 13.8575 28.6923 13.1099 27.77 13.1099Z" fill="black"/>
<path d="M11.02 21.9702H1.67C0.747684 21.9702 0 22.7179 0 23.6402V28.6702C0 29.5925 0.747684 30.3402 1.67 30.3402H11.02C11.9423 30.3402 12.69 29.5925 12.69 28.6702V23.6402C12.69 22.7179 11.9423 21.9702 11.02 21.9702Z" fill="black"/>
<path d="M27.77 0H18.42C17.4977 0 16.75 0.747684 16.75 1.67V6.7C16.75 7.62232 17.4977 8.37 18.42 8.37H27.77C28.6923 8.37 29.44 7.62232 29.44 6.7V1.67C29.44 0.747684 28.6923 0 27.77 0Z" fill="black"/>
</svg>
