<svg width="25" height="25" viewBox="0 0 25 25" fill="none" xmlns="http://www.w3.org/2000/svg">
<path d="M23.6937 0H1.30629C0.58485 0 0 0.584846 0 1.30629V23.3328C0 24.0542 0.58485 24.639 1.30629 24.639H23.6937C24.4151 24.639 25 24.0542 25 23.3328V1.30629C25 0.584846 24.4151 0 23.6937 0Z" fill="#FF6200"/>
<path d="M5.49121 10.4411L9.51322 17.5484C9.57394 17.6557 9.65996 17.7465 9.7638 17.8129C9.86764 17.8793 9.98615 17.9194 10.109 17.9296C10.2319 17.9397 10.3553 17.9197 10.4687 17.8712C10.582 17.8228 10.6818 17.7473 10.7593 17.6515L19.5167 6.68555" fill="#FF6200"/>
<path d="M5.49121 10.4411L9.51322 17.5484C9.57394 17.6557 9.65996 17.7465 9.7638 17.8129C9.86764 17.8793 9.98615 17.9194 10.109 17.9296C10.2319 17.9397 10.3553 17.9197 10.4687 17.8712C10.582 17.8228 10.6818 17.7473 10.7593 17.6515L19.5167 6.68555" stroke="white" stroke-width="2.83" stroke-miterlimit="10" stroke-linecap="round"/>
</svg>
