<svg width="37" height="36" viewBox="0 0 37 36" fill="none" xmlns="http://www.w3.org/2000/svg">
<g filter="url(#filter0_d_795_954)">
<path d="M30.0308 6.96879H24.8165V4.45644C24.8165 4.07017 24.6561 3.69971 24.3705 3.42658C24.085 3.15344 23.6978 3 23.294 3C22.8902 3 22.503 3.15344 22.2175 3.42658C21.932 3.69971 21.7716 4.07017 21.7716 4.45644V6.96879H12.7664V4.45644C12.7664 4.07017 12.606 3.69971 12.3205 3.42658C12.035 3.15344 11.6477 3 11.244 3C10.8402 3 10.4529 3.15344 10.1674 3.42658C9.88192 3.69971 9.72153 4.07017 9.72153 4.45644V6.96879H4.52243C4.11866 6.96879 3.73142 7.12223 3.44591 7.39537C3.1604 7.6685 3 8.03895 3 8.42523V29.5436C3 29.9298 3.1604 30.3003 3.44591 30.5734C3.73142 30.8466 4.11866 31 4.52243 31H30.046C30.4498 31 30.837 30.8466 31.1225 30.5734C31.408 30.3003 31.5684 29.9298 31.5684 29.5436V8.42523C31.5684 8.23273 31.5286 8.04214 31.4511 7.86448C31.3736 7.68682 31.2601 7.52561 31.1172 7.39018C30.9742 7.25474 30.8045 7.14777 30.6181 7.07544C30.4316 7.00311 30.232 6.96686 30.0308 6.96879Z" fill="white"/>
<path d="M30.9797 6.14312C30.6758 6.02525 30.3521 5.96635 30.0266 5.96879H25.8165V4.45644C25.8165 3.79029 25.5394 3.16089 25.0618 2.70398C24.5857 2.24852 23.9491 2 23.294 2C22.639 2 22.0023 2.24852 21.5262 2.70398C21.0486 3.16089 20.7716 3.79029 20.7716 4.45644V5.96879H13.7664V4.45644C13.7664 3.79029 13.4894 3.16089 13.0118 2.70398C12.5356 2.24852 11.899 2 11.244 2C10.5889 2 9.95227 2.24852 9.47616 2.70398C8.99855 3.16089 8.72153 3.79029 8.72153 4.45644V5.96879H4.52243C3.86739 5.96879 3.23074 6.21731 2.75464 6.67277C2.27702 7.12968 2 7.75908 2 8.42523V29.5436C2 30.2097 2.27702 30.8391 2.75464 31.296C3.23074 31.7515 3.86739 32 4.52243 32H30.046C30.701 32 31.3377 31.7515 31.8138 31.296C32.2914 30.8391 32.5684 30.2097 32.5684 29.5436V8.42529C32.5684 8.42527 32.5684 8.42525 32.5684 8.42523C32.5684 8.09419 32.4998 7.76763 32.3678 7.46482C32.2358 7.16212 32.0437 6.8904 31.8048 6.66416C31.5661 6.43804 31.2853 6.26166 30.9797 6.14312Z" stroke="white" stroke-width="2"/>
</g>
<path d="M30.0308 6.96879H24.8165V4.45644C24.8165 4.07017 24.6561 3.69971 24.3705 3.42658C24.085 3.15344 23.6978 3 23.294 3C22.8902 3 22.503 3.15344 22.2175 3.42658C21.932 3.69971 21.7716 4.07017 21.7716 4.45644V6.96879H12.7664V4.45644C12.7664 4.07017 12.606 3.69971 12.3205 3.42658C12.035 3.15344 11.6477 3 11.244 3C10.8402 3 10.4529 3.15344 10.1674 3.42658C9.88192 3.69971 9.72153 4.07017 9.72153 4.45644V6.96879H4.52243C4.11866 6.96879 3.73142 7.12223 3.44591 7.39537C3.1604 7.6685 3 8.03895 3 8.42523V29.5436C3 29.9298 3.1604 30.3003 3.44591 30.5734C3.73142 30.8466 4.11866 31 4.52243 31H30.046C30.4498 31 30.837 30.8466 31.1225 30.5734C31.408 30.3003 31.5684 29.9298 31.5684 29.5436V8.42523C31.5684 8.23273 31.5286 8.04214 31.4511 7.86448C31.3736 7.68682 31.2601 7.52561 31.1172 7.39018C30.9742 7.25474 30.8045 7.14777 30.6181 7.07544C30.4316 7.00311 30.232 6.96686 30.0308 6.96879ZM28.6682 13.1951C28.6682 13.5813 28.5078 13.9518 28.2223 14.2249C27.9368 14.4981 27.5495 14.6515 27.1458 14.6515H7.35416C6.95038 14.6515 6.56314 14.4981 6.27763 14.2249C5.99212 13.9518 5.83172 13.5813 5.83172 13.1951V11.3381C5.83172 10.9518 5.99212 10.5814 6.27763 10.3082C6.56314 10.0351 6.95038 9.88166 7.35416 9.88166H9.68348V11.1633C9.68348 11.5496 9.84387 11.92 10.1294 12.1932C10.4149 12.4663 10.8021 12.6198 11.2059 12.6198C11.6097 12.6198 11.9969 12.4663 12.2824 12.1932C12.5679 11.92 12.7283 11.5496 12.7283 11.1633V9.88166H21.7335V11.1633C21.7335 11.5496 21.8939 11.92 22.1794 12.1932C22.465 12.4663 22.8522 12.6198 23.2559 12.6198C23.6597 12.6198 24.047 12.4663 24.3325 12.1932C24.618 11.92 24.7784 11.5496 24.7784 11.1633V9.88166H27.1077C27.5115 9.88166 27.8987 10.0351 28.1842 10.3082C28.4698 10.5814 28.6301 10.9518 28.6301 11.3381L28.6682 13.1951Z" fill="#D9D9D9"/>
<defs>
<filter id="filter0_d_795_954" x="0" y="0" width="36.5685" height="36" filterUnits="userSpaceOnUse" color-interpolation-filters="sRGB">
<feFlood flood-opacity="0" result="BackgroundImageFix"/>
<feColorMatrix in="SourceAlpha" type="matrix" values="0 0 0 0 0 0 0 0 0 0 0 0 0 0 0 0 0 0 127 0" result="hardAlpha"/>
<feOffset dx="1" dy="1"/>
<feGaussianBlur stdDeviation="1"/>
<feComposite in2="hardAlpha" operator="out"/>
<feColorMatrix type="matrix" values="0 0 0 0 0 0 0 0 0 0 0 0 0 0 0 0 0 0 0.1 0"/>
<feBlend mode="normal" in2="BackgroundImageFix" result="effect1_dropShadow_795_954"/>
<feBlend mode="normal" in="SourceGraphic" in2="effect1_dropShadow_795_954" result="shape"/>
</filter>
</defs>
</svg>
